<svg xmlns="http://www.w3.org/2000/svg" viewBox="0 0 1168.79 311.74"><defs><style>.cls-1{fill:#fff;}</style></defs><g id="Enter"><path class="cls-1" d="M66.29,4.7V17.9H13.39V34.1H56V47.3H13.39V63.5h52.9V76.7H.09V4.7Z" transform="translate(-0.09 0.3)"/><path class="cls-1" d="M121.39,18.7a13.83,13.83,0,0,1,13.8,13.8V76.7h-13.1V32.5a.62.62,0,0,0-.7-.7H90.09a.62.62,0,0,0-.7.7V76.7H76.29v-58Z" transform="translate(-0.09 0.3)"/><path class="cls-1" d="M181.49,31.8h-22.6V62.9a.62.62,0,0,0,.7.7h21.9V76.7h-21.9a13.23,13.23,0,0,1-9.8-4,13.36,13.36,0,0,1-4-9.75V-.3h13.1v19h22.6Z" transform="translate(-0.09 0.3)"/><path class="cls-1" d="M234.39,18.7a13.83,13.83,0,0,1,13.8,13.8V54.3h-45.8v8.6a.62.62,0,0,0,.7.7h45.1V76.7h-45.1a13.83,13.83,0,0,1-13.8-13.8V32.5a13.83,13.83,0,0,1,13.8-13.8Zm-32,22.4h32.7V32.5a.62.62,0,0,0-.7-.7h-31.3a.62.62,0,0,0-.7.7Z" transform="translate(-0.09 0.3)"/><path class="cls-1" d="M269.89,18.7h32.2V31.8h-32.2a.62.62,0,0,0-.7.7V76.7h-13.1V32.5a13.83,13.83,0,0,1,13.8-13.8Z" transform="translate(-0.09 0.3)"/><path class="cls-1" d="M308.89-.3H322V12.9h-13.1Zm0,77v-58H322v58Z" transform="translate(-0.09 0.3)"/><path class="cls-1" d="M377.48,18.7a13.83,13.83,0,0,1,13.8,13.8V76.7h-13.1V32.5a.62.62,0,0,0-.7-.7h-31.3a.62.62,0,0,0-.7.7V76.7h-13.1v-58Z" transform="translate(-0.09 0.3)"/><path class="cls-1" d="M458.58,85.9a13.36,13.36,0,0,1-4,9.75,13.1,13.1,0,0,1-9.7,4h-35.5V86.5h35.5a.53.53,0,0,0,.6-.6V76.7h-32a13.81,13.81,0,0,1-13.79-13.8V32.5a13.81,13.81,0,0,1,13.79-13.8h31.4a13.1,13.1,0,0,1,9.7,4.05,13.36,13.36,0,0,1,4,9.75Zm-45.1-22.3h31.4c.41,0,.6-.24.6-.7V32.5c0-.47-.19-.7-.6-.7h-31.4a.61.61,0,0,0-.69.7V62.9A.62.62,0,0,0,413.48,63.6Z" transform="translate(-0.09 0.3)"/><path class="cls-1" d="M535.68,31.8h-22.6V62.9a.62.62,0,0,0,.7.7h21.9V76.7h-21.9a13.26,13.26,0,0,1-9.8-4,13.4,13.4,0,0,1-4-9.75V-.3h13.1v19h22.6Z" transform="translate(-0.09 0.3)"/><path class="cls-1" d="M588.88,18.7a13.32,13.32,0,0,1,9.7,4.05,13.19,13.19,0,0,1,4.1,9.75V76.7h-13.1V32.5a.62.62,0,0,0-.7-.7h-31.3a.62.62,0,0,0-.7.7V76.7h-13.1V-.3h13.1v19Z" transform="translate(-0.09 0.3)"/><path class="cls-1" d="M655.38,18.7a13.83,13.83,0,0,1,13.8,13.8V54.3h-45.8v8.6a.62.62,0,0,0,.7.7h45.1V76.7h-45.1a13.83,13.83,0,0,1-13.8-13.8V32.5a13.83,13.83,0,0,1,13.8-13.8Zm-32,22.4h32.7V32.5a.62.62,0,0,0-.7-.7h-31.3a.62.62,0,0,0-.7.7Z" transform="translate(-0.09 0.3)"/><path class="cls-1" d="M794,18.7h13.9l-21.8,58h-10.2l-17.5-38.8-16.8,38.8h-10.1l-22.8-58h13.9l14,34.2,14.9-34.2h13.6l15.8,34.4Z" transform="translate(-0.09 0.3)"/><path class="cls-1" d="M825.18,18.7h31.3a13.83,13.83,0,0,1,13.8,13.8V62.9a13.83,13.83,0,0,1-13.8,13.8h-31.3a13.83,13.83,0,0,1-13.8-13.8V32.5a13.83,13.83,0,0,1,13.8-13.8Zm31.3,13.1h-31.3a.62.62,0,0,0-.7.7V62.9a.62.62,0,0,0,.7.7h31.3a.62.62,0,0,0,.7-.7V32.5A.62.62,0,0,0,856.48,31.8Z" transform="translate(-0.09 0.3)"/><path class="cls-1" d="M893,18.7h32.2V31.8H893a.62.62,0,0,0-.7.7V76.7h-13.1V32.5A13.83,13.83,0,0,1,893,18.7Z" transform="translate(-0.09 0.3)"/><path class="cls-1" d="M932-.3h13.2V62.9c0,.46.2.7.6.7h11.7V76.7h-11.7A13.83,13.83,0,0,1,932,62.9Z" transform="translate(-0.09 0.3)"/><path class="cls-1" d="M1009.38-.3h13.1v77h-45.2a13.83,13.83,0,0,1-13.8-13.8V32.5a13.83,13.83,0,0,1,13.8-13.8h32.1Zm-32.1,63.9h31.4a.62.62,0,0,0,.7-.7V32.5a.62.62,0,0,0-.7-.7h-31.4c-.4,0-.6.23-.6.7V62.9C976.68,63.36,976.88,63.6,977.28,63.6Z" transform="translate(-0.09 0.3)"/><path class="cls-1" d="M1077.58,18.7h31.3a13.83,13.83,0,0,1,13.8,13.8V62.9a13.83,13.83,0,0,1-13.8,13.8h-31.3a13.83,13.83,0,0,1-13.8-13.8V32.5a13.83,13.83,0,0,1,13.8-13.8Zm31.3,13.1h-31.3a.62.62,0,0,0-.7.7V62.9a.62.62,0,0,0,.7.7h31.3a.62.62,0,0,0,.7-.7V32.5A.62.62,0,0,0,1108.88,31.8Z" transform="translate(-0.09 0.3)"/><path class="cls-1" d="M1147,12.9c-.47,0-.7.2-.7.6v5.2h22.6V31.8h-22.6V76.7h-13.1V13.5a13.36,13.36,0,0,1,4-9.75,13.23,13.23,0,0,1,9.8-4h21.9V12.9Z" transform="translate(-0.09 0.3)"/></g><g id="Visual"><path class="cls-1" d="M108.15,211.44H83L54.83,133.69H81.25Zm4-77.75h26l-26.9,75.41L99.65,174.88Z" transform="translate(-0.09 0.3)"/><path class="cls-1" d="M149,194.86h7.79V150.21H149V133.69h41.48v16.52h-7.79v44.65h7.79v16.58H149Z" transform="translate(-0.09 0.3)"/><path class="cls-1" d="M257.64,211.44V182.32H224l-15.59-15.59V149.22L224,133.69h8.78v27.6h35.75l15.06,15.58v19l-15.53,15.53Zm-49.22-23.32h25.9v9.26h19.22v14.06h-32l-13.07-15.53Zm28.48-40.43v-14H268l13.48,13.53v8.26H257.64v-7.79Z" transform="translate(-0.09 0.3)"/><path class="cls-1" d="M328.05,195.91h9.55v15.53H317.68l-15.59-15.53V133.69h26Zm49.16,0-15.53,15.53h-20V195.91h9.61V133.69h25.9Z" transform="translate(-0.09 0.3)"/><path class="cls-1" d="M415.62,211.44h-25l27.78-74.24,11.48,30.88ZM448,203H422.54l5.39-15.41H442l-20.8-53.85h25.25l31,77.75H451.25Z" transform="translate(-0.09 0.3)"/><path class="cls-1" d="M491.42,211.44V133.69h25.9v77.75Zm30,0V195.91h12.83v-9.84h23.5v25.37Z" transform="translate(-0.09 0.3)"/></g><g id="Experiences"><path class="cls-1" d="M183,279.51v31.93h-25.9V233.69H183v30.82h24.79v15Zm4.1-30.76V233.69h40.49v22.5H203.17v-7.44Zm0,62.69V295.91h14.59v-7.79h25.9v23.32Z" transform="translate(-0.09 0.3)"/><path class="cls-1" d="M238.19,311.44,263,275.23l13.89,21.09-9.09,15.12Zm81.67,0H291.62l-51.85-77.75h28Zm-24.14-42.6L281.9,248.63,291,233.69h27.77Z" transform="translate(-0.09 0.3)"/><path class="cls-1" d="M331.68,311.44V233.69h25.43v77.75Zm29.53-62.22V233.69h29.06l15.53,15.53v26.66l-15.53,15.58H361.21V275.88H380V249.22Z" transform="translate(-0.09 0.3)"/><path class="cls-1" d="M449.72,279.51v31.93H423.83V233.69h25.89v30.82h24.79v15Zm4.11-30.76V233.69h40.48v22.5H469.94v-7.44Zm0,62.69V295.91h14.59v-7.79h25.89v23.32Z" transform="translate(-0.09 0.3)"/><path class="cls-1" d="M513.34,311.44V233.69h25.89v77.75Zm30-62.22V233.69h29.59l15.58,15.53v23.32l-12,11.95-.82-1.64-24.32,3.22.94,2.05h-9V273.06h19.45V249.22Zm47.81,62.22H563.49l-11.13-23.32h20.57l3.63-3.63Z" transform="translate(-0.09 0.3)"/><path class="cls-1" d="M605.83,294.86h7.8V250.21h-7.8V233.69h41.49v16.52h-7.79v44.65h7.79v16.58H605.83Z" transform="translate(-0.09 0.3)"/><path class="cls-1" d="M692.36,279.51v31.93h-25.9V233.69h25.9v30.82h24.78v15Zm4.1-30.76V233.69H737v22.5H712.57v-7.44Zm0,62.69V295.91h14.59v-7.79H737v23.32Z" transform="translate(-0.09 0.3)"/><path class="cls-1" d="M830.62,311.44H803.08L756,233.69h27.36Zm-74.65,0V241.07l22.56,37v33.4Zm74.65-77.75v70.37l-22.56-37.15V233.69Z" transform="translate(-0.09 0.3)"/><path class="cls-1" d="M875.65,311.44H865.34l-15.58-15.53V249.22l15.58-15.53h10.31Zm4.11-62.22V233.69h27.59l15.53,15.53v15.64H897V249.22Zm0,62.22V295.91H897V284.55h25.9v11.36l-15.53,15.53Z" transform="translate(-0.09 0.3)"/><path class="cls-1" d="M967.8,279.51v31.93H941.9V233.69h25.9v30.82h24.79v15Zm4.1-30.76V233.69h40.49v22.5H988v-7.44Zm0,62.69V295.91h14.59v-7.79h25.9v23.32Z" transform="translate(-0.09 0.3)"/><path class="cls-1" d="M1079.46,311.44V282.32h-33.63l-15.59-15.59V249.22l15.59-15.53h8.79v27.6h35.74l15.06,15.58v19l-15.53,15.53Zm-49.22-23.32h25.9v9.26h19.22v14.06h-32l-13.07-15.53Zm28.48-40.43v-14h31.11l13.48,13.53v8.26h-23.85v-7.79Z" transform="translate(-0.09 0.3)"/></g><g id="Arrow"><rect class="cls-1" x="71.91" y="264.3" width="130" height="16"/><polygon class="cls-1" points="226.21 271.72 200.91 286.14 200.91 257.3 226.21 271.72"/></g></svg>